<svg width="16" height="16" viewBox="0 0 16 16" fill="none" xmlns="http://www.w3.org/2000/svg">
<path d="M12.9004 6.25923L12.8718 6.23063L9.76933 3.12813L9.74072 3.09952L9.76484 3.06704C9.90104 2.88361 9.96682 2.65736 9.9502 2.4295C9.93359 2.20165 9.83568 1.98735 9.67433 1.82563L12.9004 6.25923ZM12.9004 6.25923L12.9329 6.23513C13.1164 6.09901 13.3427 6.03333 13.5706 6.05005C13.7984 6.06678 14.0127 6.16481 14.1743 6.32628L15.1743 7.32626L15.2075 7.29311M12.9004 6.25923L15.2075 7.29311M15.2075 7.29311L15.1743 7.32626C15.2629 7.41477 15.3331 7.51985 15.381 7.6355C15.4289 7.75115 15.4536 7.87511 15.4536 8.0003C15.4536 8.12548 15.4289 8.24944 15.381 8.36509C15.3331 8.48075 15.2629 8.58583 15.1743 8.67434L15.2075 8.70749L15.1743 8.67434L11.1743 12.6743L11.2075 12.7075L11.1743 12.6743C11.0858 12.7629 10.9807 12.8331 10.8651 12.881C10.7494 12.9289 10.6255 12.9536 10.5003 12.9536C10.3751 12.9536 10.2511 12.9289 10.1355 12.881C10.0198 12.8331 9.91476 12.7629 9.82625 12.6743L9.7931 12.7075L9.82625 12.6743L8.82628 11.6744L15.2075 7.29311ZM5.59952 7.24012L5.62812 7.26872L6.07624 7.71684L6.10939 7.74999L6.07624 7.78313L1.99073 11.8686C1.72786 12.1565 1.58602 12.5347 1.59474 12.9245C1.60346 13.3146 1.76234 13.6864 2.03828 13.9623C2.31422 14.2382 2.68596 14.3971 3.0761 14.4058C3.4659 14.4146 3.84405 14.2727 4.13196 14.0098L8.21683 9.92434L8.24995 9.89122L8.2831 9.92432L8.73122 10.3718L8.75987 10.4004L8.73573 10.4329C8.59953 10.6164 8.53375 10.8426 8.55037 11.0705C8.56699 11.2983 8.66489 11.5126 8.82624 11.6743L5.59952 7.24012ZM5.59952 7.24012L5.56705 7.26421M5.59952 7.24012L5.56705 7.26421M5.56705 7.26421C5.38366 7.40025 5.15754 7.46594 4.92981 7.44932C4.7021 7.43271 4.48793 7.33491 4.32624 7.17372L5.56705 7.26421ZM8.67433 0.825631L9.67429 1.8256L4.3262 7.17367L3.32624 6.17372L3.32624 6.17371C3.23771 6.0852 3.16749 5.98012 3.11957 5.86447C3.07166 5.74882 3.047 5.62486 3.047 5.49967C3.047 5.37449 3.07166 5.25053 3.11957 5.13488C3.16749 5.01923 3.23771 4.91414 3.32624 4.82563L3.32624 4.82563L7.32624 0.825631L7.32625 0.825628C7.41476 0.737099 7.51984 0.666872 7.63549 0.61896C7.75114 0.571047 7.8751 0.546387 8.00029 0.546387C8.12547 0.546387 8.24943 0.571047 8.36508 0.61896C8.48073 0.666873 8.58582 0.737099 8.67432 0.825628L8.67433 0.825631ZM4.96683 6.53313L4.99997 6.56628L5.03312 6.53313L9.03312 2.53313L9.06627 2.49999L9.03312 2.46684L8.03312 1.46684L7.99997 1.43369L7.96683 1.46684L3.96683 5.46684L3.93368 5.49999L3.96683 5.53313L4.96683 6.53313ZM3.49052 13.3695L3.49062 13.3694L7.57625 9.28313L7.6094 9.24997L7.57623 9.21683L6.78311 8.42433L6.74996 8.39121L6.71683 8.42434L2.6312 12.5106L2.63108 12.5107C2.51779 12.6249 2.45421 12.7792 2.45421 12.94C2.45421 13.1008 2.51779 13.2551 2.63108 13.3693L2.6313 13.3695C2.74548 13.483 2.89992 13.5467 3.06091 13.5467C3.2219 13.5467 3.37635 13.483 3.49052 13.3695ZM6.27933 6.57059L6.24618 6.60374L6.27933 6.63688L9.36371 9.72063L9.39686 9.75378L9.43 9.72063L12.2206 6.92938L12.2538 6.89623L12.2206 6.86309L9.13687 3.77934L9.10372 3.74619L9.07058 3.77934L6.27933 6.57059ZM10.4668 12.0331L10.5 12.0663L10.5331 12.0331L14.5331 8.03313L14.5663 7.99999L14.5331 7.96684L13.5331 6.96684L13.5 6.93369L13.4668 6.96684L13.2168 7.21684L9.71683 10.7168L9.46683 10.9668L9.43368 11L9.46683 11.0331L10.4668 12.0331Z" fill="#09090B" stroke="#09090B" stroke-width="0.09375"/>
</svg>
